# xmcd
#
# Track frame offsets:
#	182
#	15065
#	30287
#	46370
#	60452
#	74340
#	88885
#	101687
#	121127
#	135577
#
# Disc length: 2056 seconds
# Revision: 0
# Processed by: cddbd v1.5.2PL0 Copyright (c) Steve Scherf et al.
# Submitted via: dBpowerAMP V12.0
#
DISCID=7508060a
DTITLE=Renée Martel - Authentique
DYEAR=1992
DGENRE=Country
TTITLE0=Je Reviens
TTITLE1=Laisse-Moi Te Dire
TTITLE2=Amour Secret
TTITLE3=J'Mennuie De Toi
TTITLE4=Ton Cheval Blanc
TTITLE5=Je T'aime Un Point C'est Tout
TTITLE6=Le Goût De Te Retrouver
TTITLE7=Seule
TTITLE8=Ne M'oublie Pas
TTITLE9=Ma Chanson D'Amour
EXTD=
EXTT0=
EXTT1=
EXTT2=
EXTT3=
EXTT4=
EXTT5=
EXTT6=
EXTT7=
EXTT8=
EXTT9=
PLAYORDER=
